<svg xmlns="http://www.w3.org/2000/svg" viewBox="0 0 512 512">
  <!-- Background Shield/Hexagon -->
  <path d="M256 32L32 128V266.6C32 388.9 127 496 256 496C385 496 480 388.9 480 266.6V128L256 32Z" fill="url(#gradBg)"/>
  
  <!-- Outer glowing ring -->
  <circle cx="256" cy="245" r="140" fill="none" stroke="#0ea5e9" stroke-width="12" stroke-dasharray="20 10"/>
  
  <!-- Inner stylized node network (A shape) -->
  <path d="M256 120L150 330H195L215 285H297L317 330H362L256 120Z" fill="url(#gradA)"/>
  <path d="M228 250H284L256 185L228 250Z" fill="#1e293b"/>

  <!-- Network dots -->
  <circle cx="256" cy="120" r="18" fill="#38bdf8"/>
  <circle cx="150" cy="330" r="18" fill="#38bdf8"/>
  <circle cx="362" cy="330" r="18" fill="#38bdf8"/>
  
  <defs>
    <linearGradient id="gradBg" x1="0%" y1="0%" x2="100%" y2="100%">
      <stop offset="0%" style="stop-color:#0f172a;stop-opacity:1" />
      <stop offset="100%" style="stop-color:#1e293b;stop-opacity:1" />
    </linearGradient>
    <linearGradient id="gradA" x1="0%" y1="0%" x2="100%" y2="100%">
      <stop offset="0%" style="stop-color:#0ea5e9;stop-opacity:1" />
      <stop offset="100%" style="stop-color:#3b82f6;stop-opacity:1" />
    </linearGradient>
  </defs>
</svg>
